<?xml version="1.0" encoding="utf-8"?>
<!-- Generator: Adobe Illustrator 26.5.0, SVG Export Plug-In . SVG Version: 6.00 Build 0)  -->
<svg version="1.1" id="Layer_1" xmlns="http://www.w3.org/2000/svg" xmlns:xlink="http://www.w3.org/1999/xlink" x="0px" y="0px"
	 viewBox="0 0 92 204.5" style="enable-background:new 0 0 92 204.5;" xml:space="preserve">
<style type="text/css">
	.st0{fill:#FFFFFF;stroke:#808080;stroke-width:6;stroke-linecap:round;stroke-miterlimit:10;}
	.st1{fill:none;stroke:#808080;stroke-width:6;stroke-linecap:round;stroke-miterlimit:10;}
	.st2{fill:#B3B3B3;}
	.st3{fill:#808080;}
</style>
<path class="st0" d="M41.5,201.5l-10.6-18.9c-2.1-3.8-2-8.4,0.4-12L46,148.2l0.5-69.6c0,0,0,0,0,0l-17,69.6c0,0-8.9,3.3-6.9,4.3"/>
<path class="st0" d="M46,148.2l22.3,23c1.8,1.9,1.9,4.9,0.2,6.9l-9.7,11.4"/>
<path class="st0" d="M65.7,148.5c0,0,8.9,3.3,6.9,4.3"/>
<line class="st1" x1="48.6" y1="78.9" x2="65.7" y2="148.5"/>
<ellipse class="st2" cx="46" cy="39" rx="42.5" ry="35.5"/>
<path class="st3" d="M46,6c22.1,0,40,14.8,40,33S68.1,72,46,72S6,57.2,6,39S23.9,6,46,6 M46,0C20.6,0,0,17.5,0,39s20.6,39,46,39
	s46-17.5,46-39S71.4,0,46,0L46,0z"/>
</svg>
